<svg width="206" height="86" viewBox="0 0 206 86" fill="none" xmlns="http://www.w3.org/2000/svg">
<g clip-path="url(#clip0)">
<rect width="206" height="86" fill="#1A1A1A"/>
<path d="M134.744 28.5H138.029L131.729 60H128.444L134.744 28.5Z" fill="#5BD647"/>
<path d="M55.4839 60.27C53.1439 60.27 50.8939 59.895 48.7339 59.145C46.6039 58.395 44.9539 57.405 43.7839 56.175L45.0889 53.61C46.2289 54.75 47.7439 55.68 49.6339 56.4C51.5239 57.09 53.4739 57.435 55.4839 57.435C58.3039 57.435 60.4189 56.925 61.8289 55.905C63.2389 54.855 63.9439 53.505 63.9439 51.855C63.9439 50.595 63.5539 49.59 62.7739 48.84C62.0239 48.09 61.0939 47.52 59.9839 47.13C58.8739 46.71 57.3289 46.26 55.3489 45.78C52.9789 45.18 51.0889 44.61 49.6789 44.07C48.2689 43.5 47.0539 42.645 46.0339 41.505C45.0439 40.365 44.5489 38.82 44.5489 36.87C44.5489 35.28 44.9689 33.84 45.8089 32.55C46.6489 31.23 47.9389 30.18 49.6789 29.4C51.4189 28.62 53.5789 28.23 56.1589 28.23C57.9589 28.23 59.7139 28.485 61.4239 28.995C63.1639 29.475 64.6639 30.15 65.9239 31.02L64.7989 33.675C63.4789 32.805 62.0689 32.16 60.5689 31.74C59.0689 31.29 57.5989 31.065 56.1589 31.065C53.3989 31.065 51.3139 31.605 49.9039 32.685C48.5239 33.735 47.8339 35.1 47.8339 36.78C47.8339 38.04 48.2089 39.06 48.9589 39.84C49.7389 40.59 50.6989 41.175 51.8389 41.595C53.0089 41.985 54.5689 42.42 56.5189 42.9C58.8289 43.47 60.6889 44.04 62.0989 44.61C63.5389 45.15 64.7539 45.99 65.7439 47.13C66.7339 48.24 67.2289 49.755 67.2289 51.675C67.2289 53.265 66.7939 54.72 65.9239 56.04C65.0839 57.33 63.7789 58.365 62.0089 59.145C60.2389 59.895 58.0639 60.27 55.4839 60.27ZM86.2745 28.5C90.2945 28.5 93.4445 29.46 95.7245 31.38C98.0045 33.3 99.1445 35.94 99.1445 39.3C99.1445 42.66 98.0045 45.3 95.7245 47.22C93.4445 49.11 90.2945 50.055 86.2745 50.055H77.8145V60H74.4845V28.5H86.2745ZM86.1845 47.13C89.3045 47.13 91.6895 46.455 93.3395 45.105C94.9895 43.725 95.8145 41.79 95.8145 39.3C95.8145 36.75 94.9895 34.8 93.3395 33.45C91.6895 32.07 89.3045 31.38 86.1845 31.38H77.8145V47.13H86.1845ZM106.345 28.5H109.675V57.12H127.315V60H106.345V28.5ZM150.741 31.38H139.671V28.5H165.141V31.38H154.071V60H150.741V31.38Z" fill="white"/>
</g>
<defs>
<clipPath id="clip0">
<rect width="206" height="86" fill="white"/>
</clipPath>
</defs>
</svg>
