<svg width="206" height="86" viewBox="0 0 206 86" fill="none" xmlns="http://www.w3.org/2000/svg">
<g clip-path="url(#clip0)">
<path d="M134.744 28.5H138.029L131.729 60H128.444L134.744 28.5Z" fill="#5BD647"/>
<path d="M157.828 31.38H146.758V28.5H172.228V31.38H161.158V60H157.828V31.38Z" fill="white"/>
<path d="M49.2925 60.27C46.9525 60.27 44.7025 59.895 42.5425 59.145C40.4125 58.395 38.7625 57.405 37.5925 56.175L38.8975 53.61C40.0375 54.75 41.5525 55.68 43.4425 56.4C45.3325 57.09 47.2825 57.435 49.2925 57.435C52.1125 57.435 54.2275 56.925 55.6375 55.905C57.0475 54.855 57.7525 53.505 57.7525 51.855C57.7525 50.595 57.3625 49.59 56.5825 48.84C55.8325 48.09 54.9025 47.52 53.7925 47.13C52.6825 46.71 51.1375 46.26 49.1575 45.78C46.7875 45.18 44.8975 44.61 43.4875 44.07C42.0775 43.5 40.8625 42.645 39.8425 41.505C38.8525 40.365 38.3575 38.82 38.3575 36.87C38.3575 35.28 38.7775 33.84 39.6175 32.55C40.4575 31.23 41.7475 30.18 43.4875 29.4C45.2275 28.62 47.3875 28.23 49.9675 28.23C51.7675 28.23 53.5225 28.485 55.2325 28.995C56.9725 29.475 58.4725 30.15 59.7325 31.02L58.6075 33.675C57.2875 32.805 55.8775 32.16 54.3775 31.74C52.8775 31.29 51.4075 31.065 49.9675 31.065C47.2075 31.065 45.1225 31.605 43.7125 32.685C42.3325 33.735 41.6425 35.1 41.6425 36.78C41.6425 38.04 42.0175 39.06 42.7675 39.84C43.5475 40.59 44.5075 41.175 45.6475 41.595C46.8175 41.985 48.3775 42.42 50.3275 42.9C52.6375 43.47 54.4975 44.04 55.9075 44.61C57.3475 45.15 58.5625 45.99 59.5525 47.13C60.5425 48.24 61.0375 49.755 61.0375 51.675C61.0375 53.265 60.6025 54.72 59.7325 56.04C58.8925 57.33 57.5875 58.365 55.8175 59.145C54.0475 59.895 51.8725 60.27 49.2925 60.27ZM80.0831 28.5C84.1031 28.5 87.2531 29.46 89.5331 31.38C91.8131 33.3 92.9531 35.94 92.9531 39.3C92.9531 42.66 91.8131 45.3 89.5331 47.22C87.2531 49.11 84.1031 50.055 80.0831 50.055H71.6231V60H68.2931V28.5H80.0831ZM79.9931 47.13C83.1131 47.13 85.4981 46.455 87.1481 45.105C88.7981 43.725 89.6231 41.79 89.6231 39.3C89.6231 36.75 88.7981 34.8 87.1481 33.45C85.4981 32.07 83.1131 31.38 79.9931 31.38H71.6231V47.13H79.9931ZM100.153 28.5H103.483V57.12H121.123V60H100.153V28.5Z" fill="white"/>
</g>
<defs>
<clipPath id="clip0">
<rect width="206" height="86" fill="white"/>
</clipPath>
</defs>
</svg>
